<svg width="100" height="101" viewBox="0 0 100 101" fill="none" xmlns="http://www.w3.org/2000/svg">
<path d="M99.7295 40.4657C99.6451 30.5828 95.2841 21.6945 88.0613 16.6876C80.5612 11.4914 71.598 11.472 64.0899 16.6391L50.002 26.3376L48.4184 27.4243L40.235 33.062C39.0493 33.8771 37.944 34.8037 36.9231 35.8129C36.5854 36.1477 36.2559 36.4873 35.9383 36.8414C31.1513 42.0958 28.4302 49.4364 28.4945 57.4271C28.5508 64.5397 30.8016 71.0846 34.7245 76.0721C35.0219 76.4505 35.3234 76.8193 35.6369 77.1734L36.8145 76.3972L48.3621 68.8043L50.002 67.7272L48.7078 66.8733L47.5864 66.1359C44.7166 64.2486 43.0526 61.0125 43.0204 57.2524C42.9923 53.507 44.596 50.2369 47.4297 48.2866L50.002 46.5157L51.24 45.6618L59.3551 40.0775L62.659 37.8021L64.0698 36.8317L71.2845 31.8685C74.2749 29.8114 77.8401 29.8211 80.8265 31.8879C82.1287 32.7903 85.1593 35.449 85.2035 40.6355L85.4768 72.9234C85.5211 78.1049 82.5427 80.8267 81.2565 81.7583C78.3063 83.8978 74.7371 83.99 71.7106 82.0008L67.2812 79.0898L65.8664 78.1583L64.3632 77.1686C63.9572 77.6295 63.5352 78.0661 63.1011 78.4979C61.9556 79.6284 60.7096 80.6472 59.3631 81.5302L51.2762 86.8477L49.998 87.687L51.3927 88.604L53.101 89.7247L64.7611 97.3904C68.4067 99.7871 72.3697 100.985 76.3208 100.985C80.6054 100.985 84.882 99.5833 88.7365 96.7839C95.8709 91.6072 100.083 82.6219 99.9988 72.739L99.7295 40.4657Z" fill="url(#paint0_linear_10_21)"/>
<path d="M66.2803 39.636C65.9146 39.1072 65.5327 38.5929 65.1348 38.0932C64.7892 37.6614 64.4395 37.2393 64.0697 36.8366L62.6589 37.8069L59.355 40.0824L51.2399 45.6666L50.002 46.5205L51.4489 47.5151L52.5784 48.2914C52.7673 48.4224 52.9441 48.5534 53.121 48.6941C55.613 50.6736 57.0117 53.7544 56.9876 57.2524C56.9555 61.0076 55.2914 64.2437 52.4216 66.1359L50.006 67.7272L48.3661 68.8043L36.8185 76.3972L35.6408 77.1734L28.2935 82.0057C25.2669 83.9949 21.7017 83.9075 18.7475 81.768C17.4653 80.8364 14.487 78.1146 14.5272 72.9331L14.8005 40.6452C14.8447 35.4539 17.8753 32.8 19.1776 31.8976C20.6768 30.8593 22.3207 30.3402 23.9646 30.3402C25.5965 30.3402 27.2323 30.8545 28.7195 31.8782L34.4913 35.8517L35.9342 36.8414C36.2518 36.4921 36.5814 36.1477 36.919 35.8129C37.9439 34.8037 39.0452 33.8771 40.2309 33.062L48.4184 27.4292L50.002 26.3424L48.5711 25.3575L35.9182 16.6391C28.406 11.472 19.4469 11.4914 11.9468 16.6876C4.71996 21.6945 0.358967 30.5828 0.274561 40.4656L0.0012449 72.7535C-0.0831615 82.6316 4.12912 91.6217 11.2635 96.7984C15.122 99.5979 19.3946 101 23.6792 101C27.6303 101 31.5933 99.8065 35.2389 97.4049L50.002 87.6967L51.2801 86.8574L59.3671 81.5399C60.7135 80.6569 61.9595 79.6332 63.1051 78.5076C63.5392 78.0807 63.9612 77.6392 64.3671 77.1783C68.8568 72.0743 71.4492 65.0733 71.5095 57.4271C71.5658 50.7658 69.6807 44.5653 66.2803 39.636Z" fill="url(#paint1_linear_10_21)"/>
<path opacity="0.1" d="M71.3235 25.8643C70.9497 25.3403 70.5558 24.8357 70.1458 24.3457L66.9866 26.5193L59.0685 31.9677L59.6513 32.3655C60.017 32.6178 60.3627 32.8895 60.6923 33.1806C63.3249 35.4851 64.796 38.9201 64.7639 42.8112C64.7277 47.1971 62.7984 50.9668 59.4704 53.1549L56.3875 55.1829L44.4742 63.0184L35.3462 69.0199C33.7184 70.0921 31.8936 70.6549 30.0728 70.6549C28.0953 70.6549 26.1379 69.9951 24.4136 68.7434C22.9224 67.6614 19.4658 64.4982 19.518 58.4481L19.7913 26.1602C19.8436 20.1005 23.3605 17.01 24.8678 15.9669C26.5479 14.8025 28.445 14.1863 30.3502 14.1863C32.2433 14.1863 34.1244 14.7928 35.7964 15.9426L41.8656 20.1199C42.8946 19.1107 43.9959 18.1889 45.1856 17.3738L53.373 11.7362L41.6084 3.64361C38.1477 1.26144 34.253 0 30.3502 0C26.4233 0 22.5044 1.27599 19.0236 3.68727C12.235 8.3934 8.13522 16.7431 8.05886 26.0244L7.78554 58.3123C7.70917 67.5887 11.6642 76.0306 18.3725 80.892C21.9457 83.4828 25.9892 84.8509 30.0688 84.8509C33.8229 84.8509 37.5931 83.6817 40.9613 81.4645L56.3916 71.3148L65.0894 65.5946C66.239 64.8378 67.3081 63.9693 68.3049 63.0233C73.4296 58.1522 76.4401 50.928 76.5044 42.947C76.5526 36.5234 74.6836 30.551 71.3235 25.8643Z" fill="white"/>
<path opacity="0.1" d="M98.3347 40.7179C98.2584 31.4415 94.1546 23.0918 87.3659 18.3856C83.8852 15.9744 79.9703 14.6984 76.0394 14.6984C72.1366 14.6984 68.2419 15.9598 64.7812 18.342L50.002 28.5159L40.9263 34.7649C40.026 35.3859 39.1699 36.07 38.366 36.8123C32.9479 41.795 29.8249 49.3539 29.8932 57.6454C29.9455 64.3989 32.1159 70.6042 35.8861 75.3055L47.0679 67.9503L46.9192 67.8533C43.5912 65.6652 41.6619 61.8955 41.6257 57.5095C41.5895 53.1333 43.4545 49.3248 46.7383 47.0639L50.002 44.8176L61.6381 36.8074L70.5932 30.6458C72.2652 29.496 74.1463 28.8895 76.0394 28.8895C77.9446 28.8895 79.8417 29.5057 81.5258 30.6701C83.0371 31.718 86.554 34.8037 86.6023 40.8634L86.8756 73.1513C86.9278 79.2014 83.4672 82.3695 81.98 83.4466C80.2557 84.6983 78.2983 85.3582 76.3208 85.3582C74.5 85.3582 72.6752 84.7905 71.0474 83.7231L66.0794 80.458L64.5762 79.4682C63.499 80.4822 62.3455 81.4137 61.1075 82.2337L52.6829 87.7743L54.3871 88.895L65.4363 96.1628C68.8046 98.38 72.5707 99.5493 76.3288 99.5493C80.4084 99.5493 84.4559 98.1811 88.0251 95.5903C94.7334 90.7241 98.6884 82.2822 98.6121 73.0106L98.3347 40.7179Z" fill="white"/>
<path opacity="0.3" d="M65.8705 78.1632L64.3672 77.1735C63.9613 77.6344 63.5393 78.071 63.1052 78.5028C61.9596 79.6333 60.7136 80.6521 59.3672 81.5351L51.2802 86.8526L50.0021 87.6919L51.3968 88.6089L53.105 89.7296C53.4869 89.4773 53.9209 89.1911 54.3832 88.8854C57.257 86.9835 61.3809 84.2472 63.2298 82.9373C64.327 82.161 65.2917 81.2683 66.0755 80.4483C66.5497 79.9535 66.9557 79.4877 67.2813 79.085L65.8705 78.1632Z" fill="#1D1D1B"/>
<path opacity="0.3" d="M65.1349 38.098C64.7893 37.6662 64.4396 37.2441 64.0698 36.8414L62.659 37.8118L59.3551 40.0872L51.24 45.6715L50.0021 46.5254L51.449 47.52L52.5785 48.2962C52.7674 48.4272 52.9442 48.5582 53.1211 48.6989L54.3108 47.879L64.942 40.5627L66.2845 39.6408C65.9187 39.1072 65.5369 38.5929 65.1349 38.098Z" fill="#1D1D1B"/>
<path opacity="0.4" d="M12.5216 19.8411C16.0024 17.4299 19.9172 16.1539 23.8481 16.1539C27.7509 16.1539 30.8096 17.1048 34.616 19.0552L46.8227 26.5607L46.9916 26.4443L35.2229 18.342C31.7622 15.9598 27.8675 14.6984 23.9647 14.6984C20.0378 14.6984 16.1189 15.9744 12.6382 18.3856C6.21523 22.8395 2.20392 30.5585 1.72562 39.2381C2.54958 31.1552 6.45639 24.0427 12.5216 19.8411Z" fill="url(#paint2_radial_10_21)"/>
<path opacity="0.4" d="M42.0919 33.9595L65.3158 19.288L65.3198 19.2978C68.6719 17.1048 72.3979 15.9355 76.1359 15.9355C80.0628 15.9355 83.9816 17.2115 87.4624 19.6228C93.5798 23.8632 97.5027 31.0679 98.2785 39.2381C97.8002 30.5585 93.7889 22.8395 87.3619 18.3856C83.8812 15.9744 79.9663 14.6984 76.0354 14.6984C72.1326 14.6984 68.2378 15.9598 64.7772 18.342L50.002 28.5159L42.0919 33.9595Z" fill="url(#paint3_radial_10_21)"/>
<defs>
<linearGradient id="paint0_linear_10_21" x1="64.2494" y1="100.997" x2="64.2494" y2="12.7774" gradientUnits="userSpaceOnUse">
<stop stop-color="#BE43CC"/>
<stop offset="0.49" stop-color="#FF5496"/>
<stop offset="1" stop-color="#FFBB33"/>
</linearGradient>
<linearGradient id="paint1_linear_10_21" x1="35.757" y1="100.997" x2="35.757" y2="12.7771" gradientUnits="userSpaceOnUse">
<stop stop-color="#0287D0"/>
<stop offset="0.45" stop-color="#8A5FEE"/>
<stop offset="1" stop-color="#E05EC8"/>
</linearGradient>
<radialGradient id="paint2_radial_10_21" cx="0" cy="0" r="1" gradientUnits="userSpaceOnUse" gradientTransform="translate(24.3576 26.9694) scale(17.5438 21.1767)">
<stop stop-color="white" stop-opacity="0"/>
<stop offset="0.45" stop-color="white"/>
<stop offset="1" stop-color="white" stop-opacity="0"/>
</radialGradient>
<radialGradient id="paint3_radial_10_21" cx="0" cy="0" r="1" gradientUnits="userSpaceOnUse" gradientTransform="translate(70.1863 26.97) scale(21.1269 25.5018)">
<stop stop-color="white" stop-opacity="0"/>
<stop offset="0.45" stop-color="white"/>
<stop offset="1" stop-color="white" stop-opacity="0"/>
</radialGradient>
</defs>
</svg>
